<?xml version="1.0" encoding="UTF-8" standalone="no"?>
<svg
   xmlns:dc="http://purl.org/dc/elements/1.1/"
   xmlns:cc="http://creativecommons.org/ns#"
   xmlns:rdf="http://www.w3.org/1999/02/22-rdf-syntax-ns#"
   xmlns:svg="http://www.w3.org/2000/svg"
   xmlns="http://www.w3.org/2000/svg"
   id="svg977"
   version="1.1"
   viewBox="0 0 192.00257 134.89142"
   height="509.82584"
   width="725.67938">
  <defs
     id="defs971" />
  <metadata
     id="metadata974">
    <rdf:RDF>
      <cc:Work
         rdf:about="">
        <dc:format>image/svg+xml</dc:format>
        <dc:type
           rdf:resource="http://purl.org/dc/dcmitype/StillImage" />
        <dc:title></dc:title>
      </cc:Work>
    </rdf:RDF>
  </metadata>
  <g
     transform="translate(33.114492,257.53046)"
     id="layer1">
    <g
       transform="matrix(0.48695424,0,0,0.48695424,-9.999768,-181.57464)"
       id="g1623">
      <path
         style="color:#000000;font-style:normal;font-variant:normal;font-weight:normal;font-stretch:normal;font-size:medium;line-height:normal;font-family:sans-serif;font-variant-ligatures:normal;font-variant-position:normal;font-variant-caps:normal;font-variant-numeric:normal;font-variant-alternates:normal;font-feature-settings:normal;text-indent:0;text-align:start;text-decoration:none;text-decoration-line:none;text-decoration-style:solid;text-decoration-color:#000000;letter-spacing:normal;word-spacing:normal;text-transform:none;writing-mode:lr-tb;direction:ltr;text-orientation:mixed;dominant-baseline:auto;baseline-shift:baseline;text-anchor:start;white-space:normal;shape-padding:0;clip-rule:nonzero;display:inline;overflow:visible;visibility:visible;opacity:1;isolation:auto;mix-blend-mode:normal;color-interpolation:sRGB;color-interpolation-filters:linearRGB;solid-color:#000000;solid-opacity:1;vector-effect:none;fill:#cccccc;fill-opacity:1;fill-rule:evenodd;stroke:none;stroke-width:5.74145842;stroke-linecap:butt;stroke-linejoin:round;stroke-miterlimit:4;stroke-dasharray:none;stroke-dashoffset:0;stroke-opacity:1;color-rendering:auto;image-rendering:auto;shape-rendering:auto;text-rendering:auto;enable-background:accumulate"
         d="m 154.62695,-72.423828 c -42.66529,-0.709315 -73.383316,14.610921 -94.261716,31.771484 -11.930514,9.806037 -20.682257,20.195391 -26.753906,28.523438 -3.035824,4.1640229 -5.402793,7.8155457 -7.152344,10.6093748 -1.74955,2.793829 -3.029986,4.8969814 -3.302734,5.2558593 C 15.702127,13.544392 10.326542,19.263656 1.1757812,30.005859 -5.4645703,37.801062 -23.644531,57.767578 -23.644531,57.767578 a 2.8710163,2.8710163 0 0 0 3.84375,4.230469 c 1.28279,-0.962094 6.102629,-2.950469 12.5644529,-4.617188 6.46182388,-1.666718 14.7445123,-3.258472 23.8496091,-4.443359 18.210194,-2.369773 39.760417,-3.094383 56.78711,0.138672 31.410339,5.964249 70.206189,11.882496 107.687499,4.503906 37.48132,-7.37859 73.63157,-28.328881 98.82617,-75.304687 0.68238,-1.272298 0.73362,-2.769669 0.42774,-4.017579 -0.30589,-1.247909 -0.9023,-2.351248 -1.66992,-3.449218 -1.53526,-2.19594 -3.82728,-4.404771 -6.79688,-6.789063 -5.93919,-4.768584 -14.6112,-10.130898 -24.97852,-15.404297 -20.73462,-10.546797 -48.15754,-20.677985 -73.24609,-23.71289 -6.5888,-0.797033 -12.92839,-1.224841 -19.02344,-1.326172 z m -0.10351,5.730469 c 5.89602,0.103521 12.03978,0.521004 18.4375,1.294921 24.06184,2.910708 51.10295,12.843165 71.33203,23.132813 10.11454,5.144824 18.54717,10.393046 23.98828,14.761719 2.72055,2.184336 4.68789,4.176527 5.68555,5.603515 0.49882,0.713495 0.7378,1.276444 0.79882,1.525391 0.061,0.248947 0.0116,0.07967 0.0879,-0.0625 -24.45679,45.600134 -58.70722,65.264758 -94.875,72.384766 C 143.81073,59.067273 105.70826,53.366988 74.470703,47.435547 56.430477,44.010041 34.50091,44.820014 15.873047,47.244141 6.5591153,48.456204 -1.9159224,50.078232 -8.6699219,51.820312 -9.7066256,52.087713 -10.396516,52.356921 -11.34375,52.621094 -5.5027254,46.172695 0.90695871,39.175379 5.546875,33.728516 14.629328,23.066499 20.118469,17.221594 27.726562,7.2109375 28.636407,6.0137755 29.618488,4.2543168 31.326172,1.5273438 33.033856,-1.1996293 35.318471,-4.7251255 38.25,-8.7460938 44.113057,-16.78803 52.552247,-26.799529 64.009766,-36.216797 84.060423,-52.697015 113.25127,-67.418011 154.52344,-66.693359 Z"
         id="path820" />
      <path
         style="color:#000000;font-style:normal;font-variant:normal;font-weight:normal;font-stretch:normal;font-size:medium;line-height:normal;font-family:sans-serif;font-variant-ligatures:normal;font-variant-position:normal;font-variant-caps:normal;font-variant-numeric:normal;font-variant-alternates:normal;font-feature-settings:normal;text-indent:0;text-align:start;text-decoration:none;text-decoration-line:none;text-decoration-style:solid;text-decoration-color:#000000;letter-spacing:normal;word-spacing:normal;text-transform:none;writing-mode:lr-tb;direction:ltr;text-orientation:mixed;dominant-baseline:auto;baseline-shift:baseline;text-anchor:start;white-space:normal;shape-padding:0;clip-rule:nonzero;display:inline;overflow:visible;visibility:visible;opacity:1;isolation:auto;mix-blend-mode:normal;color-interpolation:sRGB;color-interpolation-filters:linearRGB;solid-color:#000000;solid-opacity:1;vector-effect:none;fill:#cccccc;fill-opacity:1;fill-rule:evenodd;stroke:none;stroke-width:3.91583347;stroke-linecap:butt;stroke-linejoin:miter;stroke-miterlimit:4;stroke-dasharray:none;stroke-dashoffset:0;stroke-opacity:1;color-rendering:auto;image-rendering:auto;shape-rendering:auto;text-rendering:auto;enable-background:accumulate"
         d="m 220.08203,-58.855469 -3.62305,1.486328 c 12.32368,30.036188 5.86379,58.5132065 -9.25,79.552735 C 192.0952,43.223122 168.27094,56.612705 146.25977,56.257812 125.18756,55.918072 102.12043,46.198572 86.685547,28.837891 71.250662,11.477209 63.284712,-13.400993 72.232422,-44.757812 l -3.765625,-1.074219 c -9.268959,32.482621 -0.941833,59.01108 15.292969,77.271484 16.234802,18.260404 40.215424,28.376096 62.437504,28.734375 23.62841,0.380968 48.40589,-13.729681 64.19335,-35.707031 15.78747,-21.97735 22.52979,-52.031602 9.69141,-83.322266 z"
         id="path825" />
      <path
         style="display:inline;opacity:1;fill:#cccccc;fill-opacity:1;fill-rule:evenodd;stroke:none;stroke-width:0.26458332px;stroke-linecap:butt;stroke-linejoin:miter;stroke-opacity:1"
         d="m 141.18359,1.0392445 c 15.65461,0.16767 28.52254,-13.6139195 26.95837,-29.2074295 -1.43176,-14.27378 -9.83652,-29.251826 -29.76115,-28.249756 -19.75593,0.993586 -29.07011,15.584316 -27.87899,29.265626 1.29387,14.86114 11.74121,27.98872952 30.68177,28.1915595 z"
         id="path829" />
      <path
         style="display:inline;opacity:1;fill:#cccccc;fill-opacity:1;fill-rule:evenodd;stroke:none;stroke-width:1.69333339;stroke-linecap:butt;stroke-linejoin:miter;stroke-miterlimit:4;stroke-dasharray:none;stroke-opacity:1"
         d="M 24.867828,6.3645445 C 21.13465,26.268305 20.942107,38.491415 30.753685,48.406385 l -48.239061,7.89517 z"
         id="path831" />
      <path
         id="path1196"
         d="m 148.78452,-72.109498 1.99096,1.547863 -5.25573,12.123399 z"
         style="display:inline;opacity:1;fill:#cccccc;fill-opacity:1;fill-rule:evenodd;stroke:none;stroke-width:0.26458332px;stroke-linecap:butt;stroke-linejoin:miter;stroke-opacity:1" />
      <path
         id="path1200"
         d="m 206.06072,27.589365 -2.99733,3.67983 -35.4493,-34.8931205 z"
         style="display:inline;opacity:1;fill:#cccccc;fill-opacity:1;fill-rule:evenodd;stroke:none;stroke-width:0.26458332px;stroke-linecap:butt;stroke-linejoin:miter;stroke-opacity:1" />
      <path
         style="display:inline;opacity:1;fill:#cccccc;fill-opacity:1;fill-rule:evenodd;stroke:none;stroke-width:0.26458332px;stroke-linecap:butt;stroke-linejoin:miter;stroke-opacity:1"
         d="m 77.569721,-49.808325 0.76599,-2.77556 30.301539,11.59519 z"
         id="path1202" />
      <path
         id="path1204"
         d="m 202.64614,-62.664889 2.37234,4.110593 -26.63315,11.705991 z"
         style="display:inline;opacity:1;fill:#cccccc;fill-opacity:1;fill-rule:evenodd;stroke:none;stroke-width:0.26458332px;stroke-linecap:butt;stroke-linejoin:miter;stroke-opacity:1" />
      <path
         style="display:inline;opacity:1;fill:#cccccc;fill-opacity:1;fill-rule:evenodd;stroke:none;stroke-width:0.26458332px;stroke-linecap:butt;stroke-linejoin:miter;stroke-opacity:1"
         d="M 219.84392,-0.17892548 218.85112,4.4621345 176.13201,-13.371175 Z"
         id="path1206" />
      <path
         id="path1208"
         d="m 72.590961,6.7200945 -1.0878,-2.8144 20.88447,-7.82323 z"
         style="display:inline;opacity:1;fill:#cccccc;fill-opacity:1;fill-rule:evenodd;stroke:none;stroke-width:0.26458332px;stroke-linecap:butt;stroke-linejoin:miter;stroke-opacity:1" />
      <path
         id="path1212"
         d="m 119.56359,-66.648022 2.07383,-0.365529 3.96669,9.977008 z"
         style="display:inline;opacity:1;fill:#cccccc;fill-opacity:1;fill-rule:evenodd;stroke:none;stroke-width:0.26458332px;stroke-linecap:butt;stroke-linejoin:miter;stroke-opacity:1" />
      <path
         id="path1216"
         d="m 224.04222,-25.947275 0.24349,2.82192 -43.12077,-1.60391 z"
         style="display:inline;opacity:1;fill:#cccccc;fill-opacity:1;fill-rule:evenodd;stroke:none;stroke-width:0.26458332px;stroke-linecap:butt;stroke-linejoin:miter;stroke-opacity:1" />
      <path
         style="display:inline;opacity:1;fill:#cccccc;fill-opacity:1;fill-rule:evenodd;stroke:none;stroke-width:0.29342344px;stroke-linecap:butt;stroke-linejoin:miter;stroke-opacity:1"
         d="m 114.20094,50.335355 -2.7717,-1.81763 16.45124,-39.3638705 z"
         id="path1222" />
      <path
         id="path1224"
         d="m 174.39198,-69.135467 1.83644,1.632373 -14.28342,14.079399 z"
         style="display:inline;opacity:1;fill:#cccccc;fill-opacity:1;fill-rule:evenodd;stroke:none;stroke-width:0.26458332px;stroke-linecap:butt;stroke-linejoin:miter;stroke-opacity:1" />
      <path
         id="path1228"
         d="M 215.76241,8.5821245 214.83484,10.857375 175.1761,-6.7143955 Z"
         style="display:inline;opacity:1;fill:#cccccc;fill-opacity:1;fill-rule:evenodd;stroke:none;stroke-width:0.26458332px;stroke-linecap:butt;stroke-linejoin:miter;stroke-opacity:1" />
      <path
         style="display:inline;opacity:1;fill:#cccccc;fill-opacity:1;fill-rule:evenodd;stroke:none;stroke-width:0.26458332px;stroke-linecap:butt;stroke-linejoin:miter;stroke-opacity:1"
         d="m 66.702241,-18.759575 0.0534,-2.4565 37.555449,-0.76716 z"
         id="path1234" />
      <path
         id="path1236"
         d="m 218.26988,-58.113127 0.89628,2.287772 -45.41688,16.02916 z"
         style="display:inline;opacity:1;fill:#cccccc;fill-opacity:1;fill-rule:evenodd;stroke:none;stroke-width:0.26458332px;stroke-linecap:butt;stroke-linejoin:miter;stroke-opacity:1" />
      <path
         id="path1242"
         d="M 90.123751,34.623335 88.463091,32.812455 118.63726,2.4549245 Z"
         style="display:inline;opacity:1;fill:#cccccc;fill-opacity:1;fill-rule:evenodd;stroke:none;stroke-width:0.26458332px;stroke-linecap:butt;stroke-linejoin:miter;stroke-opacity:1" />
      <path
         id="path1246"
         d="m 143.20094,55.749025 -4.41481,0.28416 1.17718,-24.48634 z"
         style="display:inline;opacity:1;fill:#cccccc;fill-opacity:1;fill-rule:evenodd;stroke:none;stroke-width:0.26458332px;stroke-linecap:butt;stroke-linejoin:miter;stroke-opacity:1" />
      <path
         style="display:inline;opacity:1;fill:#cccccc;fill-opacity:1;fill-rule:evenodd;stroke:none;stroke-width:0.26458332px;stroke-linecap:butt;stroke-linejoin:miter;stroke-opacity:1"
         d="m 92.786171,38.981975 -2.14188,-2.12521 20.999869,-20.57752 z"
         id="path1248" />
      <path
         id="path1252"
         d="m 225.40395,-33.992985 0.32446,2.99979 -21.95347,0.14105 z"
         style="display:inline;opacity:1;fill:#cccccc;fill-opacity:1;fill-rule:evenodd;stroke:none;stroke-width:0.26458332px;stroke-linecap:butt;stroke-linejoin:miter;stroke-opacity:1" />
      <path
         style="display:inline;opacity:1;fill:#cccccc;fill-opacity:1;fill-rule:evenodd;stroke:none;stroke-width:0.26458332px;stroke-linecap:butt;stroke-linejoin:miter;stroke-opacity:1"
         d="m 66.520381,-25.137015 -0.22624,-3.00881 21.94636,0.57655 z"
         id="path1254" />
      <path
         style="display:inline;opacity:1;fill:#cccccc;fill-opacity:1;fill-rule:evenodd;stroke:none;stroke-width:0.26458332px;stroke-linecap:butt;stroke-linejoin:miter;stroke-opacity:1"
         d="m 212.9409,15.085845 -1.20846,2.13934 -20.44713,-12.0908805 z"
         id="path1256" />
      <path
         id="path1258"
         d="m 88.485631,-53.194845 1.32758,-2.70955 18.636689,11.60373 z"
         style="display:inline;opacity:1;fill:#cccccc;fill-opacity:1;fill-rule:evenodd;stroke:none;stroke-width:0.26458332px;stroke-linecap:butt;stroke-linejoin:miter;stroke-opacity:1" />
      <path
         style="display:inline;opacity:1;fill:#cccccc;fill-opacity:1;fill-rule:evenodd;stroke:none;stroke-width:0.26458332px;stroke-linecap:butt;stroke-linejoin:miter;stroke-opacity:1"
         d="m 176.19398,51.753945 -2.25671,0.97184 -8.6096,-21.5637 z"
         id="path1262" />
      <path
         style="display:inline;opacity:1;fill:#cccccc;fill-opacity:1;fill-rule:evenodd;stroke:none;stroke-width:0.26458332px;stroke-linecap:butt;stroke-linejoin:miter;stroke-opacity:1"
         d="m 78.428341,21.816155 -1.58275,-2.34889 36.746539,-23.8585905 z"
         id="path1264" />
      <path
         id="path1266"
         d="m 158.85326,56.584815 -2.78918,0.7148 -6.78577,-47.4937405 z"
         style="display:inline;opacity:1;fill:#cccccc;fill-opacity:1;fill-rule:evenodd;stroke:none;stroke-width:0.26458332px;stroke-linecap:butt;stroke-linejoin:miter;stroke-opacity:1" />
      <path
         style="display:inline;opacity:1;fill:#cccccc;fill-opacity:1;fill-rule:evenodd;stroke:none;stroke-width:0.26458332px;stroke-linecap:butt;stroke-linejoin:miter;stroke-opacity:1"
         d="m 192.5829,39.771125 -3.71112,2.95849 -15.54456,-24.59109 z"
         id="path1268" />
      <path
         style="display:inline;opacity:1;fill:#cccccc;fill-opacity:1;fill-rule:evenodd;stroke:none;stroke-width:0.26458332px;stroke-linecap:butt;stroke-linejoin:miter;stroke-opacity:1"
         d="m 286.76532,-28.738155 c -25.53787,-21.2962 -57.63794,-35.759275 -87.72489,-41.55388 -19.5639,-3.76791 -50.30766,-8.141542 -85.58334,0.645864 -15.479769,3.856119 -34.064659,11.358411 -50.602039,23.805766 -16.537378,12.44736 -31.99639,30.58529 -46.517443,55.3398895 2.24622,-6.3345 3.542075,-9.68832998 5.356696,-13.05229 -0.810405,-1.19782 -2.497865,-2.99149 -4.011334,-4.59259 1.412195,1.10054 3.525527,2.28815 5.783236,2.15038 3.013866,-5.4189095 9.696209,-14.4012695 13.650293,-19.2465895 -2.563548,-2.08103 -9.021556,-8.87071 -10.821829,-14.67681 2.994425,3.45747 9.77573,9.74704 15.718282,9.18808 5.26668,-5.79038 16.324009,-15.17388 24.508219,-20.93934 -2.05839,-3.04364 -5.93031,-13.995637 -6.93871,-21.304055 3.09513,5.311706 8.05813,12.314618 12.82859,16.32432 1.93757,-3.818038 0.55479,-10.230958 -0.64821,-15.373328 1.55536,3.654515 4.6324,10.741525 7.14002,12.378428 11.2497,-5.744054 23.756549,-10.319899 34.446829,-12.93232 10.25091,-2.505059 25.56627,-5.132652 33.63286,-5.81872 0.53395,-2.364922 2.61477,-5.391345 5.29341,-6.751391 -0.9743,2.441998 -1.49987,5.133925 -0.3638,6.452513 10.50827,-0.540539 18.7521,-0.09314 22.88849,0.0337 2.95627,-1.78421 4.46916,-6.094976 3.53497,-11.614888 4.78028,4.652451 4.96909,9.98842 2.9491,11.767925 7.98835,0.259213 16.3989,1.453013 23.52709,3.021219 15.11714,-5.385332 15.49928,-8.089302 24.52832,-17.89126 -1.28924,8.406522 -3.72602,15.918149 -8.40349,20.252325 4.20058,0.77307 9.58745,2.301211 13.99858,3.3753 9.48211,-4.098877 18.51554,-13.163409 25.28176,-21.896213 0.42116,11.692287 -2.40112,22.011484 -7.46176,26.500313 1.54094,0.331578 3.05155,0.899744 4.36304,1.435335 18.69299,-1.213808 26.52373,-11.368947 35.41844,-28.512786 1.74655,14.609511 -8.19882,29.555202 -16.60596,35.461948 10.74613,-0.652819 23.5049,-8.980469 29.79259,-19.85873 -2.43901,10.665343 -6.84925,19.527977 -14.35542,25.820895 11.95565,-3.59753 26.33538,-17.890275 35.46493,-29.365749 -4.65238,10.841191 -15.01711,27.829209 -22.64325,35.353549 14.65305,-3.23291 21.97029,-12.224843 29.90101,-23.316425 -1.55813,11.830878 -12.11575,25.572975 -19.31112,30.622945 6.79297,1.85216 20.88095,-4.18864 32.04562,-14.03024 0,0 -13.49115,25.97625 -33.22291,28.85688 -7.61079,1.11109 -20.06142,-0.40987 -26.83687,-6.05997 z"
         id="path1184" />
      <path
         style="display:inline;opacity:1;fill:#cccccc;fill-opacity:1;fill-rule:evenodd;stroke:none;stroke-width:0.26458332px;stroke-linecap:butt;stroke-linejoin:miter;stroke-opacity:1"
         d="m 39.461932,54.658225 21.786939,8.51276 c -2.97733,7.99499 -2.31907,10.01842 -3.17426,20.92126 3.07569,-11.8419 4.26296,-12.4551 9.40324,-19.59067 l 32.00638,8.33649 c 4.834889,6.08666 9.131619,25.23186 9.811329,47.036705 1.59568,-23.157165 3.72473,-35.411415 13.1299,-44.728165 27.9473,7.93901 31.17315,31.831035 33.61825,45.882435 1.78109,-12.61535 1.36374,-32.513935 -1.29858,-45.161025 18.1692,3.49332 23.67955,23.40626 23.80692,41.121045 7.33229,-15.21963 3.49358,-34.583765 5.29751,-45.668115 6.30383,0.99353 22.07348,12.00044 27.59932,28.35399 2.64039,-12.84129 -3.30147,-28.10113 -6.66482,-34.1839 8.20274,-2.81832 18.43094,-6.86512 27.65307,-11.04712 8.22915,5.02965 14.39688,18.36372 20.56564,27.33976 -0.75618,-11.95567 -8.32096,-26.71278 -11.98586,-32.29795 4.12575,-2.6421 8.58374,-5.03338 14.56549,-8.72405 11.02321,0.31882 24.24277,17.63612 33.20288,29.47926 -4.9612,-17.09467 -15.82986,-27.46549 -21.03347,-38.98452 4.18065,0.58261 20.43565,6.03371 31.9991,36.67596 -3.98825,-15.80904 -11.14406,-39.08007 -22.21981,-45.44957 l 6.09198,-8.46027 c 5.32841,0.4028 11.27617,2.91939 15.07257,8.53205 -2.11132,-6.74558 -3.82564,-8.14425 -12.28894,-13.8862905 1.73884,-5.21801 2.54418,-9.90261 2.37857,-14.03236 0,0 -17.62442,27.7627805 -38.09105,40.3996305 -11.6698,7.20537 -29.61384,17.93938 -50.52969,24.39072 -20.91587,6.45136 -44.80354,8.62001 -64.32066,7.92895 -28.98262,-1.02624 -96.381948,-12.69701 -96.381948,-12.69701 z"
         id="path1194" />
      <path
         style="display:inline;opacity:1;fill:#cccccc;fill-opacity:1;fill-rule:evenodd;stroke:none;stroke-width:0.2308193px;stroke-linecap:butt;stroke-linejoin:miter;stroke-opacity:1"
         d="m 208.97937,-124.34323 c -48.02074,4.55359 -123.886809,33.566907 -161.89398,35.400184 4.382146,-0.323395 8.618271,-0.15249 13.421571,1.625385 -22.365075,0.470199 -95.438718,21.822482 -107.97492,27.01639 7.859885,-7.359922 22.611294,-19.236248 33.277194,-24.544634 11.5639164,-5.755325 33.460946,-15.730665 43.91801,-18.587355 4.281916,-2.39434 13.897835,-8.63871 22.821876,-13.14867 -2.330421,1.31062 -1.64886,4.22334 -1.642287,6.19029 18.842327,-7.40786 22.887137,-9.00249 44.913737,-21.94049 -1.79602,2.59101 3.72772,6.00001 11.677919,6.7598 13.39757,-5.04189 24.71335,-9.89714 25.15221,-19.1626 5.49299,6.60703 15.79822,8.68729 29.85921,5.34544 6.18818,-3.01903 12.5144,-7.73376 8.55782,-12.70293 10.76796,3.76404 27.70436,7.61949 44.76445,6.27063 -2.35751,-2.89875 -4.32374,-4.48439 -5.34778,-10.15964 3.96417,3.64408 7.48412,7.389 18.06759,9.49099 7.70252,-0.19732 21.8222,-0.45387 27.61901,-0.76655 -2.07574,-1.77669 -5.74527,-5.22251 -6.02258,-8.50323 2.92621,5.35984 15.92834,8.58052 26.8588,9.49571 14.45596,1.21038 46.17334,-9.03771 63.42687,9.84791 -13.00689,-6.6202 -30.42017,-2.25929 -49.05385,1.49989 -18.07176,3.64583 -33.50795,3.41941 -86.98761,13.86019 1.0037,-1.22728 2.00494,-2.15298 4.58674,-3.28671 z"
         id="path1192" />
    </g>
  </g>
</svg>
