<?xml version="1.0" encoding="UTF-8" standalone="no"?>
<svg
   xmlns:dc="http://purl.org/dc/elements/1.1/"
   xmlns:cc="http://creativecommons.org/ns#"
   xmlns:rdf="http://www.w3.org/1999/02/22-rdf-syntax-ns#"
   xmlns:svg="http://www.w3.org/2000/svg"
   xmlns="http://www.w3.org/2000/svg"
   id="svg977"
   version="1.1"
   viewBox="0 0 192.00257 134.89142"
   height="509.82584"
   width="725.67938">
  <defs
     id="defs971" />
  <metadata
     id="metadata974">
    <rdf:RDF>
      <cc:Work
         rdf:about="">
        <dc:format>image/svg+xml</dc:format>
        <dc:type
           rdf:resource="http://purl.org/dc/dcmitype/StillImage" />
        <dc:title></dc:title>
      </cc:Work>
    </rdf:RDF>
  </metadata>
  <g
     style="fill:#cccccc;fill-opacity:1"
     transform="translate(33.114492,257.53046)"
     id="layer1">
    <path
       id="path820"
       d="m 92.496415,-257.53046 c 0.498661,2.76359 1.455976,3.53594 2.603976,4.9475 -8.307483,0.65683 -16.554644,-1.22064 -21.798148,-3.05356 1.926674,2.41976 -1.153826,4.71554 -4.167186,6.18567 -6.847061,1.62733 -11.865361,0.61438 -14.540195,-2.60294 -0.213704,4.51185 -5.723825,6.87604 -12.247829,9.33121 -3.871383,-0.36998 -6.561052,-2.03009 -5.686472,-3.29179 -10.725946,6.30021 -12.69566,7.07681 -21.871011,10.6841 -0.0032,-0.95781 -0.334859,-2.37607 0.799949,-3.01429 -4.345598,2.19615 -9.0284332,5.23678 -11.1135293,6.40271 -5.0921114,1.39108 -15.7546717,6.24855 -21.3857697,9.05113 -5.193805,2.58494 -12.377288,8.36829 -16.204692,11.95224 6.104557,-2.5292 41.6879226,-12.92682 52.578691,-13.15579 -2.044337,-0.75668 -3.877703,-0.91531 -5.73195,-0.83819 18.755543,-1.2468 54.980718,-15.00592 78.031395,-17.19171 -1.257218,0.55208 -1.744699,1.00279 -2.233456,1.60042 26.042152,-5.08418 33.558522,-4.97359 42.358642,-6.74894 9.07375,-1.83055 17.55367,-3.95444 23.88743,-0.73071 -8.40168,-9.19643 -23.84657,-4.20617 -30.88596,-4.79557 -5.32264,-0.44565 -11.65438,-2.01401 -13.07931,-4.624 0.13504,1.59756 1.92185,3.27566 2.93264,4.14083 -2.82278,0.15226 -9.69801,0.27702 -13.44879,0.3731 -5.153663,-1.02357 -6.868054,-2.84692 -8.798425,-4.62142 z m 9.181865,30.48547 c -4.396728,4.77311 -4.582614,6.08972 -11.943968,8.71213 -3.471103,-0.76365 -7.566704,-1.34501 -11.456662,-1.47123 0.983641,-0.86654 0.891688,-3.46487 -1.43609,-5.7304 0.454909,2.68795 -0.281773,4.78716 -1.721341,5.65599 -2.014233,-0.0618 -6.028522,-0.27976 -11.145571,-0.0165 -0.553214,-0.64209 -0.297187,-1.95279 0.17725,-3.14193 -1.304374,0.66228 -2.318125,2.13553 -2.578136,3.28714 -3.928059,0.33408 -11.385566,1.61409 -16.377289,2.83394 -5.205679,1.27213 -11.296079,3.50019 -16.774167,6.29728 -1.221097,-0.79709 -2.7194,-4.24847 -3.476791,-6.02805 0.585806,2.5041 1.259253,5.62715 0.315743,7.48636 -2.322996,-1.95254 -4.739975,-5.36282 -6.247163,-7.94938 0.491046,3.55886 2.376781,8.89193 3.379123,10.37404 -3.985336,2.80751 -9.370037,7.37714 -11.934669,10.19679 -2.8937522,0.27219 -6.1956482,-2.79051 -7.6537957,-4.47414 0.8766517,2.8273 4.0211154,6.13348 5.2694457,7.14684 -1.9254598,2.35946 -5.1795244,6.73328 -6.6471387,9.37204 -1.09940172,0.0671 -2.12817291,-0.51105 -2.8158486,-1.04696 0.73699136,0.77966 1.55873937,1.65327 1.95337061,2.23655 -0.88363933,1.6381 -1.51482124,3.27107 -2.60862701,6.35569 7.0710884,-12.05436 14.5988957,-20.88693 22.6518417,-26.94823 8.052949,-6.06129 17.10293,-9.71429 24.640867,-11.59205 17.177643,-4.27906 32.148241,-2.14951 41.674966,-0.31471 14.65097,2.82171 30.28254,9.86466 42.71831,20.23494 3.29934,2.75134 9.36235,3.49229 13.06845,2.95124 9.60847,-1.40274 16.17782,-14.05237 16.17782,-14.05237 -5.43668,4.79241 -12.29686,7.73406 -15.60473,6.83214 3.50382,-2.4591 8.64483,-9.15065 9.40356,-14.91175 -3.8619,5.40109 -7.42498,9.77955 -14.56035,11.35383 3.71358,-3.66401 8.76071,-11.93632 11.0262,-17.21549 -4.44567,5.58804 -11.44789,12.54807 -17.26974,14.2999 3.65516,-3.06436 5.80258,-7.38037 6.99027,-12.5739 -3.06182,5.29721 -9.27477,9.35283 -14.50764,9.67072 4.09389,-2.87631 8.93682,-10.15454 8.08633,-17.26871 -4.33132,8.34827 -8.14438,13.29335 -17.24701,13.88442 -0.63864,-0.2608 -1.37405,-0.5372 -2.12442,-0.69866 2.4643,-2.18586 3.83846,-7.21103 3.63337,-12.90464 -3.29484,4.25248 -7.69352,8.66643 -12.31087,10.6624 -2.14802,-0.52303 -4.771663,-1.26686 -6.817153,-1.64331 2.277712,-2.11055 3.464453,-5.76834 4.092253,-9.86193 z m -38.312379,10.19369 c -19.775515,0.13146 -34.12132,7.38543 -43.970433,15.48071 -5.809613,4.77509 -10.0715258,9.83421 -13.0281407,13.88959 -1.4783087,2.02768 -2.6310398,3.80614 -3.4829926,5.1666 -0.8519502,1.36047 -1.4753534,2.38426 -1.6081689,2.55902 -3.6298179,4.77608 -6.2472185,7.56102 -10.7032204,12.79198 -3.2335474,3.79591 -12.0865984,13.51907 -12.0865984,13.51907 a 1.3980536,1.3980536 0 0 0 1.87172,2.05982 c 0.62466,-0.46849 2.971876,-1.43682 6.118489,-2.24844 3.146612,-0.81162 7.1799926,-1.58671 11.6137573,-2.16369 8.8675321,-1.15397 19.3613487,-1.50666 27.6525687,0.0677 15.2954,2.90432 34.186966,5.78619 52.438647,2.19315 18.25169,-3.59303 35.855561,-13.79504 48.124181,-36.6701 0.33229,-0.61955 0.35721,-1.34828 0.20826,-1.95596 -0.14896,-0.60767 -0.43959,-1.14533 -0.81339,-1.68 -0.7476,-1.06932 -1.86381,-2.1447 -3.30987,-3.30574 -2.89212,-2.32208 -7.11467,-4.93344 -12.16308,-7.50135 -10.09681,-5.1358 -23.450608,-10.06923 -35.667584,-11.54709 -3.208443,-0.38812 -6.295503,-0.5961 -9.263513,-0.64544 -0.649253,-0.0108 -1.292712,-0.014 -1.930632,-0.01 z m 0.01344,2.78898 c 0.616606,-0.003 1.238501,-1.8e-4 1.866553,0.0108 2.660285,0.0467 5.425778,0.22675 8.295617,0.55243 l -4.681367,5.90971 5.85132,-5.76812 c 3.922553,0.50422 7.998167,1.38265 12.051974,2.51767 l -9.897584,6.45232 12.755809,-5.60689 c 1.298077,0.40184 2.587132,0.82851 3.86591,1.27331 l -18.879463,7.76748 20.441127,-7.21403 c 0.339936,0.12338 0.678296,0.24827 1.015957,0.37414 1.216424,3.34795 1.958855,6.64916 2.288748,9.87019 l -9.124506,1.32499 9.233544,-0.0594 c 0.05748,0.82714 0.08819,1.6483 0.0925,2.46342 l -20.336222,0.57774 20.320201,0.75551 c -0.11421,3.85735 -0.808847,7.56275 -1.972487,11.05203 l -20.798726,-6.27662 20.037531,8.36435 c -0.300757,0.75821 -0.623533,1.50506 -0.967383,2.23966 l -19.535235,-7.36286 19.018473,8.42687 c -0.339149,0.67339 -0.695254,1.33592 -1.068668,1.98696 l -10.105324,-4.64364 9.521378,5.63014 c -0.558149,0.91456 -1.146185,1.80699 -1.767332,2.67168 -0.467603,0.65093 -0.95261,1.28676 -1.453141,1.90686 l -17.827848,-14.47354 16.404162,16.14682 c -1.458745,1.62923 -3.029957,3.13036 -4.683433,4.49223 l -8.938988,-10.04176 7.204211,11.3962 c -2.040422,1.50849 -4.185591,2.80808 -6.390308,3.86901 l -4.709273,-8.92348 3.74189,9.37255 c -1.932373,0.86242 -3.903727,1.5432 -5.883358,2.0221 -0.398055,0.033 -0.796041,0.0636 -1.194244,0.0915 l -4.47931,-21.88549 3.138825,21.97179 c -2.045834,0.11475 -4.091243,0.16438 -6.130373,0.15967 l -1.544611,-11.54451 -0.553452,11.52229 c -0.763241,-0.0156 -1.52472,-0.0406 -2.285132,-0.0703 -3.203262,-0.57132 -6.413853,-1.55659 -9.498127,-2.93006 l 6.452834,-19.42671 -7.846029,18.77404 c -2.944549,-1.44273 -5.750823,-3.24502 -8.297683,-5.38727 l 8.237737,-9.9167 -9.23561,9.04957 c -0.249671,-0.22502 -0.496586,-0.45289 -0.740521,-0.68471 l 13.38109,-15.09675 -14.202745,14.28956 c -0.463701,-0.46846 -0.916742,-0.94823 -1.35599,-1.44229 -1.134358,-1.27589 -2.184418,-2.63687 -3.137275,-4.07778 l 16.239315,-12.10314 -16.941598,10.99985 c -1.088522,-1.78809 -2.026044,-3.69497 -2.787943,-5.71645 l 9.404075,-5.05292 -9.88105,3.70107 c -1.109834,-3.36915 -1.732266,-7.04201 -1.75338,-11.00346 l 17.440792,-1.495 -17.429939,0.35605 c 0.01566,-0.66294 0.04483,-1.33215 0.09457,-2.01073 l 9.509493,-1.06505 -9.392706,-0.24702 c 0.227504,-2.17256 0.629501,-4.42168 1.225248,-6.74687 1.576913,-1.12579 3.25298,-2.2158 5.030183,-3.25148 l 13.069485,3.71037 -11.70936,-4.48087 c 0.775776,-0.42693 1.570489,-0.84233 2.383831,-1.24591 l 9.234578,4.11396 -7.75198,-4.82658 c 4.191457,-1.94529 8.865159,-3.55241 14.061669,-4.62659 l 2.043287,3.25148 -1.349271,-3.39359 c 3.72997,-0.7301 7.726582,-1.18387 12.003915,-1.29295 l -0.956529,4.00389 1.742011,-4.01732 c 0.258894,-0.004 0.51473,-0.012 0.775662,-0.0134 z m -5.100977,4.99142 c -0.292312,2.7e-4 -0.58977,0.008 -0.892969,0.0233 -9.620234,0.48383 -14.155935,7.58915 -13.575913,14.25132 0.630055,7.2367 5.717499,13.62907 14.940687,13.72784 7.623078,0.0816 13.889039,-6.62957 13.12736,-14.2229 -0.675413,-6.73347 -4.537535,-13.78876 -13.599165,-13.77951 z m 40.106069,2.1668 c 3.767877,1.48898 7.350757,3.10796 10.575067,4.74802 4.92531,2.5053 9.03188,5.06085 11.68145,7.18819 1.32478,1.06368 2.28301,2.03364 2.76882,2.72852 0.24291,0.34744 0.3589,0.62188 0.38861,0.74311 0.008,0.0322 0.007,0.0225 0.01,0.03 0.0109,-0.0204 0.0222,-0.0401 0.0331,-0.0605 -0.0273,0.0508 -0.0263,0.0812 -0.0331,0.0605 -11.90715,22.16169 -28.570769,31.72357 -46.166675,35.18751 -0.270381,0.0532 -0.541547,0.10058 -0.812353,0.15089 5.971552,-3.03547 11.443708,-7.71631 15.62178,-13.5325 7.125748,-9.91958 10.461358,-23.21863 5.933488,-37.24371 z m -75.944701,6.67814 c -2.94708,14.15079 1.062492,25.76641 8.347808,33.96071 4.295523,4.83147 9.705121,8.48942 15.485358,10.85308 -7.03229,-0.72453 -13.79897,-1.88428 -20.008594,-3.06338 -6.856638,-1.30195 -14.864825,-1.34457 -22.364004,-0.74052 -3.26661912,-4.10798 -3.4539573,-9.1172 -2.2809988,-16.43569 0.6073562,-0.76097 1.2258698,-1.54765 1.8825735,-2.41173 0.4430526,-0.58297 0.9213001,-1.43937 1.7528641,-2.76728 0.8315641,-1.32791 1.9438483,-3.04476 3.3713703,-5.00279 2.8550389,-3.91606 6.9646469,-8.79118 12.5439329,-13.37696 0.41416,-0.34041 0.839406,-0.67862 1.26969,-1.01544 z m 108.185618,16.03933 c 0,0 -8.58242,13.51912 -18.54873,19.67269 -5.68266,3.50869 -14.420153,8.7358 -24.605215,11.87731 -10.185072,3.14152 -21.81765,4.19726 -31.321595,3.86075 -14.11321,-0.49974 -46.9335585,-6.18257 -46.9335585,-6.18257 l 10.6091705,4.14496 c -1.449824,3.8932 -1.129205,4.87883 -1.545643,10.18801 1.497721,-5.76646 2.075968,-6.06529 4.579047,-9.53998 l 15.585609,4.0597 c 2.35437,2.96392 4.446499,12.28657 4.777484,22.90454 0.777026,-11.27648 1.814039,-17.24375 6.393925,-21.78058 13.609058,3.86593 15.179923,15.50043 16.370574,22.34282 0.867309,-6.1431 0.663908,-15.83287 -0.632521,-21.99142 8.84757,1.70109 11.531066,11.39781 11.593089,20.02409 3.570491,-7.41126 1.701255,-16.84085 2.579687,-22.23843 3.069677,0.48381 10.748656,5.844 13.439486,13.80743 1.285751,-6.25313 -1.607481,-13.68398 -3.245278,-16.64601 3.994358,-1.37239 8.975086,-3.34307 13.465839,-5.37952 4.00722,2.44921 7.01047,8.94196 10.01438,13.31288 -0.36823,-5.82186 -4.05222,-13.00748 -5.83686,-15.7272 2.00906,-1.28658 4.18027,-2.45113 7.09311,-4.24832 5.3678,0.15525 11.80484,8.58813 16.168,14.3552 -2.41588,-8.32433 -7.70835,-13.37461 -10.24227,-18.98385 2.03579,0.2837 9.95112,2.93799 15.582,17.85937 -1.9421,-7.69828 -5.42663,-19.03033 -10.82002,-22.13198 l 2.96675,-4.11964 c 2.59469,0.19614 5.49093,1.42167 7.3396,4.15478 -1.02812,-3.28479 -1.86289,-3.96575 -5.98413,-6.76186 0.84674,-2.54093 1.23871,-4.82217 1.15807,-6.83317 z"
       style="color:#000000;font-style:normal;font-variant:normal;font-weight:normal;font-stretch:normal;font-size:medium;line-height:normal;font-family:sans-serif;font-variant-ligatures:normal;font-variant-position:normal;font-variant-caps:normal;font-variant-numeric:normal;font-variant-alternates:normal;font-feature-settings:normal;text-indent:0;text-align:start;text-decoration:none;text-decoration-line:none;text-decoration-style:solid;text-decoration-color:#000000;letter-spacing:normal;word-spacing:normal;text-transform:none;writing-mode:lr-tb;direction:ltr;text-orientation:mixed;dominant-baseline:auto;baseline-shift:baseline;text-anchor:start;white-space:normal;shape-padding:0;clip-rule:nonzero;display:inline;overflow:visible;visibility:visible;opacity:1;isolation:auto;mix-blend-mode:normal;color-interpolation:sRGB;color-interpolation-filters:linearRGB;solid-color:#000000;solid-opacity:1;vector-effect:none;fill:#cccccc;fill-opacity:1;fill-rule:evenodd;stroke:none;stroke-width:2.79582763;stroke-linecap:butt;stroke-linejoin:round;stroke-miterlimit:4;stroke-dasharray:none;stroke-dashoffset:0;stroke-opacity:1;color-rendering:auto;image-rendering:auto;shape-rendering:auto;text-rendering:auto;enable-background:accumulate" />
  </g>
</svg>
