<?xml version="1.0" encoding="UTF-8" standalone="no"?>
<!-- Created with Inkscape (http://www.inkscape.org/) -->

<svg xmlns:dc="http://purl.org/dc/elements/1.1/" 
   xmlns:cc="http://creativecommons.org/ns#" 
   xmlns:rdf="http://www.w3.org/1999/02/22-rdf-syntax-ns#" 
   xmlns:svg="http://www.w3.org/2000/svg" 
   xmlns="http://www.w3.org/2000/svg" 
   xmlns:sodipodi="http://sodipodi.sourceforge.net/DTD/sodipodi-0.dtd" 
   xmlns:inkscape="http://www.inkscape.org/namespaces/inkscape" width="169.01926mm" height="112.96881mm" viewBox="0 0 169.01926 112.96881" version="1.1" id="svg1315" sodipodi:docname="logo.svg" inkscape:version="0.92.4 5da689c313, 2019-01-14">
   <defs id="defs1309" />
   <sodipodi:namedview id="base" pagecolor="#ffffff" bordercolor="#666666" borderopacity="1.0" inkscape:pageopacity="0.0" inkscape:pageshadow="2" inkscape:zoom="0.98994949" inkscape:cx="290.06408" inkscape:cy="234.35017" inkscape:document-units="mm" inkscape:current-layer="g5788" showgrid="false" fit-margin-top="0" fit-margin-left="0" fit-margin-right="0" fit-margin-bottom="0" inkscape:window-width="1920" inkscape:window-height="999" inkscape:window-x="0" inkscape:window-y="0" inkscape:window-maximized="1" />
   <metadata id="metadata1312">
      <rdf:RDF>
         <cc:Work rdf:about="">
            <dc:format>image/svg+xml</dc:format>
            <dc:type rdf:resource="http://purl.org/dc/dcmitype/StillImage" />
            <dc:title></dc:title>
         </cc:Work>
      </rdf:RDF>
   </metadata>
   <g inkscape:label="Layer 1" inkscape:groupmode="layer" id="layer1" transform="translate(-7.7624139,-89.489549)">
      <g id="g5788">
         <path style="color:#000000;font-style:normal;font-variant:normal;font-weight:normal;font-stretch:normal;font-size:medium;line-height:normal;font-family:sans-serif;font-variant-ligatures:normal;font-variant-position:normal;font-variant-caps:normal;font-variant-numeric:normal;font-variant-alternates:normal;font-feature-settings:normal;text-indent:0;text-align:start;text-decoration:none;text-decoration-line:none;text-decoration-style:solid;text-decoration-color:#000000;letter-spacing:normal;word-spacing:normal;text-transform:none;writing-mode:lr-tb;direction:ltr;text-orientation:mixed;dominant-baseline:auto;baseline-shift:baseline;text-anchor:start;white-space:normal;shape-padding:0;clip-rule:nonzero;display:inline;overflow:visible;visibility:visible;opacity:1;isolation:auto;mix-blend-mode:normal;color-interpolation:sRGB;color-interpolation-filters:linearRGB;solid-color:#000000;solid-opacity:1;vector-effect:none;fill:#cccccc;fill-opacity:1;fill-rule:evenodd;stroke:none;stroke-width:2.40055656;stroke-linecap:butt;stroke-linejoin:round;stroke-miterlimit:4;stroke-dasharray:none;stroke-dashoffset:0;stroke-opacity:1;color-rendering:auto;image-rendering:auto;shape-rendering:auto;text-rendering:auto;enable-background:accumulate" d="m 94.393035,123.56568 c -18.289077,-0.28927 -31.456789,5.95854 -40.406609,12.95686 -5.11418,3.99904 -8.86574,8.23597 -11.468438,11.63226 -1.301347,1.69815 -2.315982,3.18729 -3.065951,4.32666 -0.749969,1.13936 -1.298848,1.99705 -1.415762,2.14341 -3.195317,3.99987 -5.499635,6.33226 -9.422237,10.71309 -2.846479,3.17899 -10.639574,11.32162 -10.639574,11.32162 a 1.2307014,1.1708412 0 0 0 1.647678,1.72525 c 0.549886,-0.39236 2.615973,-1.20404 5.385927,-1.88375 2.76995,-0.67972 6.320441,-1.32806 10.22347,-1.81127 7.806054,-0.96643 17.043858,-1.26194 24.342591,0.0566 13.464483,2.4323 30.094866,4.84585 46.16176,1.83676 16.06689,-3.0091 31.5632,-11.55292 42.36322,-30.71033 0.29251,-0.51886 0.31448,-1.12951 0.18336,-1.63842 -0.13112,-0.50892 -0.38678,-0.95887 -0.71584,-1.40664 -0.65811,-0.89554 -1.63978,-1.79633 -2.91274,-2.76868 -2.54592,-1.94469 -6.26413,-4.13152 -10.70823,-6.28209 -8.88818,-4.30113 -20.6434,-8.43277 -31.39796,-9.67045 -2.824385,-0.32504 -5.541939,-0.49951 -8.154665,-0.54083 z m -0.04354,2.33696 c 2.527413,0.0422 5.160183,0.21248 7.902655,0.52809 10.31445,1.18703 21.906,5.23683 30.57748,9.43309 4.33574,2.09814 7.95051,4.23923 10.28291,6.02084 1.16621,0.8908 2.00954,1.70325 2.43719,2.28519 0.21383,0.29097 0.31627,0.52055 0.34243,0.62208 0.0262,0.10152 0.005,0.0317 0.0377,-0.0263 -10.48375,18.59639 -25.16567,26.61669 -40.6695,29.52034 -15.503833,2.90364 -31.836992,0.57898 -45.22741,-1.83995 -7.733198,-1.39697 -17.133611,-1.06665 -25.118709,-0.0781 -3.992547,0.4943 -7.625492,1.15578 -10.520684,1.86623 -0.444786,0.10915 -0.740646,0.21954 -1.147015,0.32737 2.503711,-2.62961 5.251983,-5.48382 7.241241,-7.70546 3.893324,-4.34812 6.247157,-6.73176 9.508472,-10.81425 0.39002,-0.48821 0.810162,-1.20575 1.542187,-2.31785 0.732021,-1.11209 1.712191,-2.55064 2.968833,-4.19045 2.513283,-3.27961 6.13086,-7.36165 11.042287,-11.20214 8.594993,-6.72087 21.108059,-12.7243 38.799953,-12.42878 z" id="path820" inkscape:connector-curvature="0" />
         <path style="color:#000000;font-style:normal;font-variant:normal;font-weight:normal;font-stretch:normal;font-size:medium;line-height:normal;font-family:sans-serif;font-variant-ligatures:normal;font-variant-position:normal;font-variant-caps:normal;font-variant-numeric:normal;font-variant-alternates:normal;font-feature-settings:normal;text-indent:0;text-align:start;text-decoration:none;text-decoration-line:none;text-decoration-style:solid;text-decoration-color:#000000;letter-spacing:normal;word-spacing:normal;text-transform:none;writing-mode:lr-tb;direction:ltr;text-orientation:mixed;dominant-baseline:auto;baseline-shift:baseline;text-anchor:start;white-space:normal;shape-padding:0;clip-rule:nonzero;display:inline;overflow:visible;visibility:visible;opacity:1;isolation:auto;mix-blend-mode:normal;color-interpolation:sRGB;color-interpolation-filters:linearRGB;solid-color:#000000;solid-opacity:1;vector-effect:none;fill:#cccccc;fill-opacity:1;fill-rule:evenodd;stroke:none;stroke-width:1.63724589;stroke-linecap:butt;stroke-linejoin:miter;stroke-miterlimit:4;stroke-dasharray:none;stroke-dashoffset:0;stroke-opacity:1;color-rendering:auto;image-rendering:auto;shape-rendering:auto;text-rendering:auto;enable-background:accumulate" d="m 122.45127,129.09825 -1.55307,0.60614 c 5.28272,12.24919 2.51443,23.86252 -3.9643,32.44274 -6.47874,8.58022 -16.69218,14.04148 -26.127577,13.89675 -9.032897,-0.13856 -18.920107,-4.1023 -25.536487,-11.18224 -6.61638,-7.07993 -10.031093,-17.22561 -6.195535,-30.01337 l -1.614187,-0.43808 c -3.97327,13.24687 -0.404569,24.06556 6.554707,31.51241 6.959276,7.44685 17.238907,11.57217 26.76471,11.71828 10.128649,0.15537 20.749869,-5.59915 27.517389,-14.56183 6.76751,-8.96268 9.65771,-21.22002 4.15435,-33.9808 z" id="path825" inkscape:connector-curvature="0" />
         <path sodipodi:nodetypes="sssss" inkscape:connector-curvature="0" id="path829" d="m 88.630549,153.52481 c 6.710568,0.0684 12.226591,-5.55195 11.556081,-11.91121 -0.613741,-5.82105 -4.21656,-11.92931 -12.757532,-11.52065 -8.468657,0.4052 -12.461311,6.35551 -11.95072,11.93494 0.554635,6.06058 5.033034,11.4142 13.152171,11.49692 z" style="display:inline;opacity:1;fill:#cccccc;fill-opacity:1;fill-rule:evenodd;stroke:none;stroke-width:0.11062472px;stroke-linecap:butt;stroke-linejoin:miter;stroke-opacity:1" />
         <path sodipodi:nodetypes="cc" inkscape:connector-curvature="0" id="path831" d="m 38.770165,155.69654 c -1.60028,8.11704 -1.682815,13.1018 2.523057,17.14526 l -20.67835,3.21977 z" style="display:inline;opacity:1;fill:#cccccc;fill-opacity:1;fill-rule:evenodd;stroke:none;stroke-width:0.70799822;stroke-linecap:butt;stroke-linejoin:miter;stroke-miterlimit:4;stroke-dasharray:none;stroke-opacity:1" />
         <path style="display:inline;opacity:1;fill:#cccccc;fill-opacity:1;fill-rule:evenodd;stroke:none;stroke-width:0.11062472px;stroke-linecap:butt;stroke-linejoin:miter;stroke-opacity:1" d="m 91.888794,123.69371 0.853453,0.63124 -2.252942,4.9441 z" id="path1196" inkscape:connector-curvature="0" sodipodi:nodetypes="cccc" />
         <path sodipodi:nodetypes="cccc" style="display:inline;opacity:1;fill:#cccccc;fill-opacity:1;fill-rule:evenodd;stroke:none;stroke-width:0.11062472px;stroke-linecap:butt;stroke-linejoin:miter;stroke-opacity:1" d="m 116.44104,164.35233 -1.28485,1.50068 -15.195836,-14.22991 z" id="path1200" inkscape:connector-curvature="0" />
         <path inkscape:connector-curvature="0" id="path1202" d="m 61.361571,132.78845 0.328352,-1.13192 12.989181,4.72869 z" style="display:inline;opacity:1;fill:#cccccc;fill-opacity:1;fill-rule:evenodd;stroke:none;stroke-width:0.11062472px;stroke-linecap:butt;stroke-linejoin:miter;stroke-opacity:1" sodipodi:nodetypes="cccc" />
         <path style="display:inline;opacity:1;fill:#cccccc;fill-opacity:1;fill-rule:evenodd;stroke:none;stroke-width:0.11062472px;stroke-linecap:butt;stroke-linejoin:miter;stroke-opacity:1" d="m 114.97733,127.54536 1.01694,1.67636 -11.41667,4.77387 z" id="path1204" inkscape:connector-curvature="0" sodipodi:nodetypes="cccc" />
         <path inkscape:connector-curvature="0" id="path1206" d="m 122.3494,153.02802 -0.42557,1.89269 -18.31215,-7.27267 z" style="display:inline;opacity:1;fill:#cccccc;fill-opacity:1;fill-rule:evenodd;stroke:none;stroke-width:0.11062472px;stroke-linecap:butt;stroke-linejoin:miter;stroke-opacity:1" sodipodi:nodetypes="cccc" />
         <path style="display:inline;opacity:1;fill:#cccccc;fill-opacity:1;fill-rule:evenodd;stroke:none;stroke-width:0.11062472px;stroke-linecap:butt;stroke-linejoin:miter;stroke-opacity:1" d="m 59.227356,155.84154 -0.466301,-1.14775 8.952421,-3.19043 z" id="path1208" inkscape:connector-curvature="0" sodipodi:nodetypes="cccc" />
         <path style="display:inline;opacity:1;fill:#cccccc;fill-opacity:1;fill-rule:evenodd;stroke:none;stroke-width:0.11062472px;stroke-linecap:butt;stroke-linejoin:miter;stroke-opacity:1" d="m 79.362833,125.92098 0.888976,-0.14907 1.700377,4.06877 z" id="path1212" inkscape:connector-curvature="0" sodipodi:nodetypes="cccc" />
         <path style="display:inline;opacity:1;fill:#cccccc;fill-opacity:1;fill-rule:evenodd;stroke:none;stroke-width:0.11062472px;stroke-linecap:butt;stroke-linejoin:miter;stroke-opacity:1" d="m 124.14906,142.51932 0.10438,1.15082 -18.48432,-0.6541 z" id="path1216" inkscape:connector-curvature="0" sodipodi:nodetypes="cccc" />
         <path inkscape:connector-curvature="0" id="path1222" d="m 77.064057,173.62847 -1.188128,-0.74126 7.052055,-16.05315 z" style="display:inline;opacity:1;fill:#cccccc;fill-opacity:1;fill-rule:evenodd;stroke:none;stroke-width:0.12268303px;stroke-linecap:butt;stroke-linejoin:miter;stroke-opacity:1" sodipodi:nodetypes="cccc" />
         <path sodipodi:nodetypes="cccc" style="display:inline;opacity:1;fill:#cccccc;fill-opacity:1;fill-rule:evenodd;stroke:none;stroke-width:0.11062472px;stroke-linecap:butt;stroke-linejoin:miter;stroke-opacity:1" d="m 102.86579,124.90656 0.78722,0.66571 -6.122791,5.74178 z" id="path1224" inkscape:connector-curvature="0" />
         <path style="display:inline;opacity:1;fill:#cccccc;fill-opacity:1;fill-rule:evenodd;stroke:none;stroke-width:0.11062472px;stroke-linecap:butt;stroke-linejoin:miter;stroke-opacity:1" d="m 120.59981,156.6009 -0.39762,0.92788 -17.00027,-7.16602 z" id="path1228" inkscape:connector-curvature="0" sodipodi:nodetypes="cccc" />
         <path inkscape:connector-curvature="0" id="path1234" d="m 56.703072,145.45057 0.02289,-1.0018 16.098671,-0.31286 z" style="display:inline;opacity:1;fill:#cccccc;fill-opacity:1;fill-rule:evenodd;stroke:none;stroke-width:0.11062472px;stroke-linecap:butt;stroke-linejoin:miter;stroke-opacity:1" sodipodi:nodetypes="cccc" />
         <path style="display:inline;opacity:1;fill:#cccccc;fill-opacity:1;fill-rule:evenodd;stroke:none;stroke-width:0.11062472px;stroke-linecap:butt;stroke-linejoin:miter;stroke-opacity:1" d="m 121.67467,129.40163 0.3842,0.93299 -19.46858,6.53692 z" id="path1236" inkscape:connector-curvature="0" sodipodi:nodetypes="cccc" />
         <path sodipodi:nodetypes="cccc" style="display:inline;opacity:1;fill:#cccccc;fill-opacity:1;fill-rule:evenodd;stroke:none;stroke-width:0.11062472px;stroke-linecap:butt;stroke-linejoin:miter;stroke-opacity:1" d="m 66.743032,167.22088 -0.711865,-0.7385 12.934581,-12.38024 z" id="path1242" inkscape:connector-curvature="0" />
         <path sodipodi:nodetypes="cccc" style="display:inline;opacity:1;fill:#cccccc;fill-opacity:1;fill-rule:evenodd;stroke:none;stroke-width:0.11062472px;stroke-linecap:butt;stroke-linejoin:miter;stroke-opacity:1" d="m 89.495314,175.83624 -1.89247,0.11588 0.504615,-9.98588 z" id="path1246" inkscape:connector-curvature="0" />
         <path sodipodi:nodetypes="cccc" inkscape:connector-curvature="0" id="path1248" d="m 67.884316,168.9984 -0.918147,-0.8667 9.001889,-8.3918 z" style="display:inline;opacity:1;fill:#cccccc;fill-opacity:1;fill-rule:evenodd;stroke:none;stroke-width:0.11062472px;stroke-linecap:butt;stroke-linejoin:miter;stroke-opacity:1" />
         <path style="display:inline;opacity:1;fill:#cccccc;fill-opacity:1;fill-rule:evenodd;stroke:none;stroke-width:0.11062472px;stroke-linecap:butt;stroke-linejoin:miter;stroke-opacity:1" d="m 124.73279,139.23817 0.13908,1.22335 -9.41066,0.0575 z" id="path1252" inkscape:connector-curvature="0" sodipodi:nodetypes="cccc" />
         <path sodipodi:nodetypes="cccc" inkscape:connector-curvature="0" id="path1254" d="m 56.625115,142.84976 -0.09698,-1.22704 9.407617,0.23513 z" style="display:inline;opacity:1;fill:#cccccc;fill-opacity:1;fill-rule:evenodd;stroke:none;stroke-width:0.11062472px;stroke-linecap:butt;stroke-linejoin:miter;stroke-opacity:1" />
         <path sodipodi:nodetypes="cccc" inkscape:connector-curvature="0" id="path1256" d="m 119.39033,159.25321 -0.51803,0.87246 -8.76495,-4.93084 z" style="display:inline;opacity:1;fill:#cccccc;fill-opacity:1;fill-rule:evenodd;stroke:none;stroke-width:0.11062472px;stroke-linecap:butt;stroke-linejoin:miter;stroke-opacity:1" />
         <path style="display:inline;opacity:1;fill:#cccccc;fill-opacity:1;fill-rule:evenodd;stroke:none;stroke-width:0.11062472px;stroke-linecap:butt;stroke-linejoin:miter;stroke-opacity:1" d="m 66.040829,131.40738 0.569086,-1.105 7.988878,4.73217 z" id="path1258" inkscape:connector-curvature="0" sodipodi:nodetypes="cccc" />
         <path sodipodi:nodetypes="cccc" inkscape:connector-curvature="0" id="path1262" d="m 103.63824,174.20699 -0.96737,0.39633 -3.690622,-8.79399 z" style="display:inline;opacity:1;fill:#cccccc;fill-opacity:1;fill-rule:evenodd;stroke:none;stroke-width:0.11062472px;stroke-linecap:butt;stroke-linejoin:miter;stroke-opacity:1" />
         <path sodipodi:nodetypes="cccc" inkscape:connector-curvature="0" id="path1264" d="m 61.72963,161.99793 -0.678468,-0.95791 15.75192,-9.72987 z" style="display:inline;opacity:1;fill:#cccccc;fill-opacity:1;fill-rule:evenodd;stroke:none;stroke-width:0.11062472px;stroke-linecap:butt;stroke-linejoin:miter;stroke-opacity:1" />
         <path sodipodi:nodetypes="cccc" style="display:inline;opacity:1;fill:#cccccc;fill-opacity:1;fill-rule:evenodd;stroke:none;stroke-width:0.11062472px;stroke-linecap:butt;stroke-linejoin:miter;stroke-opacity:1" d="m 96.204901,176.17708 -1.195621,0.29151 -2.908816,-19.36862 z" id="path1266" inkscape:connector-curvature="0" />
         <path sodipodi:nodetypes="cccc" inkscape:connector-curvature="0" id="path1268" d="m 110.66358,169.32022 -1.59082,1.20652 -6.66339,-10.0286 z" style="display:inline;opacity:1;fill:#cccccc;fill-opacity:1;fill-rule:evenodd;stroke:none;stroke-width:0.11062472px;stroke-linecap:butt;stroke-linejoin:miter;stroke-opacity:1" />
         <path sodipodi:nodetypes="ssccccccccccccccccccccss" inkscape:connector-curvature="0" id="path1184" d="m 151.0362,141.38116 c -10.94717,-8.68489 -24.70731,-14.58314 -37.6045,-16.94626 -12.88751,-2.36134 -24.492414,-1.76524 -24.492414,-1.76524 5.801521,-1.39846 9.317021,-1.7174 14.101684,-1.64755 1.26725,-0.72763 1.91577,-2.48562 1.51532,-4.73672 2.04913,1.89734 2.13007,4.07342 1.26417,4.79913 3.42432,0.10571 7.02962,0.59256 10.08522,1.2321 6.48017,-2.19622 6.64398,-3.29894 10.51441,-7.29631 -0.55265,3.42829 -1.59721,6.49164 -3.60228,8.25918 1.80064,0.31527 4.1098,0.93847 6.00069,1.3765 4.06464,-1.67158 7.93695,-5.36823 10.83738,-8.92959 0.18054,4.76828 -1.02927,8.9766 -3.19859,10.8072 0.66055,0.13523 1.30809,0.36693 1.87028,0.58535 8.01301,-0.495 11.36977,-4.63641 15.18261,-11.62791 0.74868,5.95796 -3.51454,12.05303 -7.11838,14.46188 4.60648,-0.26623 10.07571,-3.66236 12.77102,-8.09867 -1.04552,4.34948 -2.93603,7.96379 -6.15366,10.53013 5.12496,-1.46713 11.28903,-7.29591 15.20254,-11.97577 -1.9943,4.42119 -6.43729,11.34914 -9.70634,14.41768 6.28123,-1.31843 9.41787,-4.98547 12.81748,-9.50877 -0.66791,4.8248 -5.19358,10.42902 -8.27798,12.48847 2.9119,0.75534 8.95091,-1.70819 13.73681,-5.72173 0,0 -5.78317,10.59348 -14.24147,11.76824 -3.26247,0.45312 -8.59961,-0.16715 -11.504,-2.47134 z" style="display:inline;opacity:1;fill:#cccccc;fill-opacity:1;fill-rule:evenodd;stroke:none;stroke-width:0.11062472px;stroke-linecap:butt;stroke-linejoin:miter;stroke-opacity:1" />
         <path sodipodi:nodetypes="cccccccccccccccccccccccccsssc" inkscape:connector-curvature="0" id="path1194" d="m 45.026131,175.39139 9.339277,3.47163 c -1.276274,3.26047 -0.994102,4.08565 -1.360691,8.53198 1.318438,-4.82929 1.827378,-5.07936 4.030831,-7.98935 l 13.719985,3.39974 c 2.072544,2.48223 3.914397,10.28991 4.205764,19.18224 0.684011,-9.44382 1.596658,-14.44128 5.628316,-18.24078 11.980003,3.23764 13.362808,12.98115 14.410935,18.71151 0.763489,-5.14472 0.584586,-13.25965 -0.556655,-18.41731 7.788487,1.42462 10.150567,9.5454 10.205167,16.76975 3.14309,-6.20679 1.49758,-14.10376 2.27086,-18.62411 2.70222,0.40517 9.4621,4.89395 11.83083,11.56316 1.13184,-5.23686 -1.41522,-11.46004 -2.85697,-13.94068 3.51622,-1.14935 7.90068,-2.7997 11.85388,-4.50518 3.52754,2.05117 6.17142,7.48899 8.81575,11.14955 -0.32415,-4.8757 -3.5669,-10.89385 -5.13791,-13.17157 1.76856,-1.07748 3.67954,-2.05268 6.2437,-3.55779 4.72526,0.13002 10.39201,7.19226 14.23288,12.02206 -2.12669,-6.97145 -6.78569,-11.20081 -9.01629,-15.89844 1.7921,0.2376 8.76003,2.46064 13.71686,14.95698 -1.70962,-6.44715 -4.77705,-15.93741 -9.52483,-18.53498 l 2.61141,-3.45022 c 2.2841,0.16427 4.83369,1.19057 6.46107,3.47949 -0.90504,-2.75094 -1.63991,-3.32134 -5.26782,-5.66303 0.74537,-2.12797 1.09059,-4.03842 1.0196,-5.72259 0,0 -7.55495,11.32205 -16.32826,16.47554 -5.00242,2.93846 -12.69439,7.31594 -21.66026,9.94689 -8.96588,2.63095 -19.205665,3.51536 -27.571953,3.23353 -12.423806,-0.41851 -41.315476,-5.17802 -41.315476,-5.17802 z" style="display:inline;opacity:1;fill:#cccccc;fill-opacity:1;fill-rule:evenodd;stroke:none;stroke-width:0.11062472px;stroke-linecap:butt;stroke-linejoin:miter;stroke-opacity:1" />
         <path sodipodi:nodetypes="ccccscccccccccccccscscc" inkscape:connector-curvature="0" id="path1192" d="m 117.69216,102.39205 c -20.584763,1.85702 -53.105818,13.68907 -69.398126,14.4367 1.87847,-0.13188 3.694342,-0.0622 5.753344,0.66286 -9.587101,0.19175 -40.911142,8.89952 -46.2849641,11.01767 3.3692521,-3.00149 9.6926511,-7.84482 14.2647391,-10.00966 4.957032,-2.3471 14.343501,-6.41519 18.826071,-7.58018 1.8355,-0.97645 5.9575,-3.52299 9.782914,-5.36222 -0.998967,0.53449 -0.706807,1.72234 -0.703986,2.52449 8.077025,-3.02103 9.810891,-3.67134 19.252902,-8.947644 -0.769889,1.056654 1.597939,2.446894 5.005904,2.756744 5.743056,-2.056155 10.593724,-4.036193 10.781848,-7.814782 2.354647,2.694442 6.772128,3.542803 12.799569,2.179949 2.652655,-1.231205 5.364475,-3.15394 3.668425,-5.180437 4.61584,1.535027 11.87587,3.107337 19.18891,2.557254 -1.01058,-1.182155 -1.85343,-1.828801 -2.2924,-4.143245 1.6993,1.486104 3.20818,3.013338 7.74493,3.870559 3.30179,-0.08047 9.35439,-0.185097 11.83928,-0.312609 -0.8898,-0.724562 -2.4628,-2.129816 -2.58167,-3.467741 1.25436,2.185819 6.82791,3.499259 11.5134,3.872488 6.19675,0.493608 19.79285,-3.685708 27.18882,4.016116 -5.57559,-2.699812 -13.04003,-0.921372 -21.02762,0.611678 -7.74671,1.486819 -14.36365,1.394484 -37.28846,5.65238 0.43025,-0.5005 0.85945,-0.87802 1.96617,-1.34037 z" style="display:inline;opacity:1;fill:#cccccc;fill-opacity:1;fill-rule:evenodd;stroke:none;stroke-width:0.09650767px;stroke-linecap:butt;stroke-linejoin:miter;stroke-opacity:1" />
      </g>
   </g>
</svg>
