<?xml version="1.0" encoding="UTF-8" standalone="no"?>
<!-- Created with Inkscape (http://www.inkscape.org/) -->

<svg
   xmlns:dc="http://purl.org/dc/elements/1.1/"
   xmlns:cc="http://creativecommons.org/ns#"
   xmlns:rdf="http://www.w3.org/1999/02/22-rdf-syntax-ns#"
   xmlns:svg="http://www.w3.org/2000/svg"
   xmlns="http://www.w3.org/2000/svg"
   xmlns:sodipodi="http://sodipodi.sourceforge.net/DTD/sodipodi-0.dtd"
   xmlns:inkscape="http://www.inkscape.org/namespaces/inkscape"
   width="380.77545mm"
   height="256.8508mm"
   viewBox="0 0 380.77545 256.8508"
   version="1.1"
   id="svg4995"
   inkscape:version="0.92.4 5da689c313, 2019-01-14"
   sodipodi:docname="zalem.svg">
  <defs
     id="defs4989" />
  <sodipodi:namedview
     id="base"
     pagecolor="#ffffff"
     bordercolor="#666666"
     borderopacity="1.0"
     inkscape:pageopacity="0.0"
     inkscape:pageshadow="2"
     inkscape:zoom="0.49497475"
     inkscape:cx="833.73396"
     inkscape:cy="268.96443"
     inkscape:document-units="mm"
     inkscape:current-layer="layer1"
     showgrid="false"
     inkscape:window-width="1920"
     inkscape:window-height="999"
     inkscape:window-x="0"
     inkscape:window-y="0"
     inkscape:window-maximized="1"
     fit-margin-top="0"
     fit-margin-left="0"
     fit-margin-right="0"
     fit-margin-bottom="0" />
  <metadata
     id="metadata4992">
    <rdf:RDF>
      <cc:Work
         rdf:about="">
        <dc:format>image/svg+xml</dc:format>
        <dc:type
           rdf:resource="http://purl.org/dc/dcmitype/StillImage" />
        <dc:title></dc:title>
      </cc:Work>
    </rdf:RDF>
  </metadata>
  <g
     inkscape:label="Layer 1"
     inkscape:groupmode="layer"
     id="layer1"
     transform="translate(96.454533,36.220573)">
    <path
       style="display:inline;opacity:1;fill:#262626;fill-opacity:1;fill-rule:evenodd;stroke:none;stroke-width:0.13273868px;stroke-linecap:butt;stroke-linejoin:miter;stroke-opacity:1"
       d="m 37.112837,113.39491 11.67134,-12.30795 c 15.57545,-3.481613 75.448773,-2.995425 91.566973,0.1061 l 11.84724,12.20185 z"
       id="path4528"
       inkscape:connector-curvature="0"
       sodipodi:nodetypes="ccccc" />
    <path
       style="display:inline;opacity:1;fill:#262626;fill-opacity:1;fill-rule:evenodd;stroke:none;stroke-width:0.13273868px;stroke-linecap:butt;stroke-linejoin:miter;stroke-opacity:1"
       d="m 70.323107,113.39491 c 16.77304,12.62627 13.69174,18.35584 16.02156,37.24219 l 0.80488,1.41042 0.57446,-1.19822 c 0.47196,-0.57691 0.67186,-1.69791 0.84883,-2.86478 0.57995,2.1138 1.36623,3.69113 1.48544,7.00281 1.307,0.0291 0.76532,0.78975 1.3547,1.71053 l 1.19179,-6.59128 0.5305,0.42441 0.95493,-2.86478 c 0.43,-0.39088 0.7244,-0.30724 0.95492,0 l 1.06104,-5.72956 c 0.28143,0.90869 0.64838,1.00114 1.12962,1.01064 l 0.24972,2.80906 c 0.91831,0.78668 0.35226,3.71999 0.95492,6.5784 0.42009,-1.1397 0.76435,-3.03763 1.27325,-3.2892 l 0.10609,2.97089 c 1.206573,0.80939 -0.01,1.77884 0.954943,5.09295 l 0.53052,-1.37934 0.3183,1.90985 0.66126,0.52409 0.20688,-2.85191 0.5112,-1.9163 c 0.57144,-0.30711 0.0134,-1.6539 0.95492,-2.22817 -0.0381,-0.63932 0.16516,-1.03735 0.42442,-1.37934 2.2989,-16.90575 -0.30716,-23.6674 16.44598,-36.39336 z"
       id="path4532"
       inkscape:connector-curvature="0"
       sodipodi:nodetypes="ccccccccccccccccccccccccccc" />
    <path
       style="display:inline;opacity:1;fill:#262626;fill-opacity:1;stroke:none;stroke-width:1.79541838;stroke-linecap:round;stroke-linejoin:round;stroke-miterlimit:4;stroke-dasharray:none;stroke-opacity:1;paint-order:stroke fill markers"
       d="M 87.936211,-36.220573 H 103.10895 V 101.19306 H 87.936211 Z"
       id="rect4536"
       inkscape:connector-curvature="0" />
    <path
       style="display:inline;opacity:1;fill:#262626;fill-opacity:1;fill-rule:evenodd;stroke:none;stroke-width:0.13273868px;stroke-linecap:butt;stroke-linejoin:miter;stroke-opacity:1"
       d="m 37.112837,113.39491 c 0,3.14213 115.085553,3.20204 115.085553,0 l -58.886123,-2.24902 -56.19943,2.24902"
       id="path5558"
       inkscape:connector-curvature="0"
       sodipodi:nodetypes="cccc" />
    <path
       style="color:#000000;font-style:normal;font-variant:normal;font-weight:normal;font-stretch:normal;font-size:medium;line-height:normal;font-family:sans-serif;font-variant-ligatures:normal;font-variant-position:normal;font-variant-caps:normal;font-variant-numeric:normal;font-variant-alternates:normal;font-feature-settings:normal;text-indent:0;text-align:start;text-decoration:none;text-decoration-line:none;text-decoration-style:solid;text-decoration-color:#000000;letter-spacing:normal;word-spacing:normal;text-transform:none;writing-mode:lr-tb;direction:ltr;text-orientation:mixed;dominant-baseline:auto;baseline-shift:baseline;text-anchor:start;white-space:normal;shape-padding:0;clip-rule:nonzero;display:inline;overflow:visible;visibility:visible;opacity:1;isolation:auto;mix-blend-mode:normal;color-interpolation:sRGB;color-interpolation-filters:linearRGB;solid-color:#000000;solid-opacity:1;vector-effect:none;fill:#262626;fill-opacity:1;fill-rule:evenodd;stroke:none;stroke-width:0.66369337;stroke-linecap:butt;stroke-linejoin:miter;stroke-miterlimit:4;stroke-dasharray:none;stroke-dashoffset:0;stroke-opacity:1;color-rendering:auto;image-rendering:auto;shape-rendering:auto;text-rendering:auto;enable-background:accumulate"
       d="m 46.403507,110.06354 c -35.85801,57.77802 -98.06899,94.95287 -142.85804,109.64561 l 0.20675,0.63103 c 44.931,-14.7393 107.24267,-51.96508 143.21471,-109.92683 z"
       id="path5562"
       inkscape:connector-curvature="0" />
    <path
       style="color:#000000;font-style:normal;font-variant:normal;font-weight:normal;font-stretch:normal;font-size:medium;line-height:normal;font-family:sans-serif;font-variant-ligatures:normal;font-variant-position:normal;font-variant-caps:normal;font-variant-numeric:normal;font-variant-alternates:normal;font-feature-settings:normal;text-indent:0;text-align:start;text-decoration:none;text-decoration-line:none;text-decoration-style:solid;text-decoration-color:#000000;letter-spacing:normal;word-spacing:normal;text-transform:none;writing-mode:lr-tb;direction:ltr;text-orientation:mixed;dominant-baseline:auto;baseline-shift:baseline;text-anchor:start;white-space:normal;shape-padding:0;clip-rule:nonzero;display:inline;overflow:visible;visibility:visible;opacity:1;isolation:auto;mix-blend-mode:normal;color-interpolation:sRGB;color-interpolation-filters:linearRGB;solid-color:#000000;solid-opacity:1;vector-effect:none;fill:#262626;fill-opacity:1;fill-rule:evenodd;stroke:none;stroke-width:0.53095472;stroke-linecap:butt;stroke-linejoin:miter;stroke-miterlimit:4;stroke-dasharray:none;stroke-dashoffset:0;stroke-opacity:1;color-rendering:auto;image-rendering:auto;shape-rendering:auto;text-rendering:auto;enable-background:accumulate"
       d="m 143.2923,113.28826 -0.48601,0.21361 c 2.9452,6.71736 11.99075,16.21655 24.22611,26.89037 12.23536,10.67382 27.65988,22.49231 43.34323,33.71216 15.68335,11.21985 31.62434,21.84067 44.89141,30.11606 13.26707,8.2754 23.83594,14.19964 28.86968,16.05309 l 0.18421,-0.49777 c -4.91447,-1.80953 -15.51663,-7.73754 -28.77267,-16.00605 -13.25603,-8.26852 -29.19013,-18.88343 -44.86397,-30.09647 -15.67384,-11.21305 -31.08798,-23.02468 -43.30306,-33.68081 -12.21508,-10.65612 -21.23127,-20.18649 -24.08893,-26.70419 z"
       id="path5564"
       inkscape:connector-curvature="0" />
    <path
       style="color:#000000;font-style:normal;font-variant:normal;font-weight:normal;font-stretch:normal;font-size:medium;line-height:normal;font-family:sans-serif;font-variant-ligatures:normal;font-variant-position:normal;font-variant-caps:normal;font-variant-numeric:normal;font-variant-alternates:normal;font-feature-settings:normal;text-indent:0;text-align:start;text-decoration:none;text-decoration-line:none;text-decoration-style:solid;text-decoration-color:#000000;letter-spacing:normal;word-spacing:normal;text-transform:none;writing-mode:lr-tb;direction:ltr;text-orientation:mixed;dominant-baseline:auto;baseline-shift:baseline;text-anchor:start;white-space:normal;shape-padding:0;clip-rule:nonzero;display:inline;overflow:visible;visibility:visible;opacity:1;isolation:auto;mix-blend-mode:normal;color-interpolation:sRGB;color-interpolation-filters:linearRGB;solid-color:#000000;solid-opacity:1;vector-effect:none;fill:#262626;fill-opacity:1;fill-rule:evenodd;stroke:none;stroke-width:1.1548264;stroke-linecap:butt;stroke-linejoin:miter;stroke-miterlimit:4;stroke-dasharray:none;stroke-dashoffset:0;stroke-opacity:1;color-rendering:auto;image-rendering:auto;shape-rendering:auto;text-rendering:auto;enable-background:accumulate"
       d="m 122.6074,110.67595 -1.13468,0.21655 c 7.53594,39.46676 40.40262,84.72195 78.01762,109.61328 l 0.63691,-0.96321 C 162.79218,194.83648 130.05753,149.69332 122.6074,110.67595 Z"
       id="path5566"
       inkscape:connector-curvature="0" />
    <path
       style="color:#000000;font-style:normal;font-variant:normal;font-weight:normal;font-stretch:normal;font-size:medium;line-height:normal;font-family:sans-serif;font-variant-ligatures:normal;font-variant-position:normal;font-variant-caps:normal;font-variant-numeric:normal;font-variant-alternates:normal;font-feature-settings:normal;text-indent:0;text-align:start;text-decoration:none;text-decoration-line:none;text-decoration-style:solid;text-decoration-color:#000000;letter-spacing:normal;word-spacing:normal;text-transform:none;writing-mode:lr-tb;direction:ltr;text-orientation:mixed;dominant-baseline:auto;baseline-shift:baseline;text-anchor:start;white-space:normal;shape-padding:0;clip-rule:nonzero;display:inline;overflow:visible;visibility:visible;opacity:1;isolation:auto;mix-blend-mode:normal;color-interpolation:sRGB;color-interpolation-filters:linearRGB;solid-color:#000000;solid-opacity:1;vector-effect:none;fill:#262626;fill-opacity:1;fill-rule:evenodd;stroke:none;stroke-width:0.46458536;stroke-linecap:butt;stroke-linejoin:miter;stroke-miterlimit:4;stroke-dasharray:none;stroke-dashoffset:0;stroke-opacity:1;color-rendering:auto;image-rendering:auto;shape-rendering:auto;text-rendering:auto;enable-background:accumulate"
       d="m 63.993997,113.3304 c -13.84656,48.00645 -38.87174,80.46546 -73.1085104,106.50907 l 0.28123,0.37039 C 25.464747,194.11964 50.568387,161.55589 64.440817,113.45974 Z"
       id="path5572"
       inkscape:connector-curvature="0" />
    <path
       style="color:#000000;font-style:normal;font-variant:normal;font-weight:normal;font-stretch:normal;font-size:medium;line-height:normal;font-family:sans-serif;font-variant-ligatures:normal;font-variant-position:normal;font-variant-caps:normal;font-variant-numeric:normal;font-variant-alternates:normal;font-feature-settings:normal;text-indent:0;text-align:start;text-decoration:none;text-decoration-line:none;text-decoration-style:solid;text-decoration-color:#000000;letter-spacing:normal;word-spacing:normal;text-transform:none;writing-mode:lr-tb;direction:ltr;text-orientation:mixed;dominant-baseline:auto;baseline-shift:baseline;text-anchor:start;white-space:normal;shape-padding:0;clip-rule:nonzero;display:inline;overflow:visible;visibility:visible;opacity:1;isolation:auto;mix-blend-mode:normal;color-interpolation:sRGB;color-interpolation-filters:linearRGB;solid-color:#000000;solid-opacity:1;vector-effect:none;fill:#262626;fill-opacity:1;fill-rule:evenodd;stroke:none;stroke-width:0.39821604;stroke-linecap:butt;stroke-linejoin:miter;stroke-miterlimit:4;stroke-dasharray:none;stroke-dashoffset:0;stroke-opacity:1;color-rendering:auto;image-rendering:auto;shape-rendering:auto;text-rendering:auto;enable-background:accumulate"
       d="m 106.08497,113.38233 -0.39783,0.0245 c 1.44552,23.19373 4.84745,49.22618 9.6928,69.78776 2.42267,10.28078 5.2051,19.19331 8.2916,25.70766 3.08649,6.51435 6.47099,10.66442 10.19644,11.31839 l 0.0686,-0.39194 c -3.47966,-0.61083 -6.8385,-4.62597 -9.90445,-11.09694 -3.06594,-6.47098 -5.84531,-15.36378 -8.26415,-25.6283 -4.83768,-20.52904 -8.23875,-46.54765 -9.683,-69.72113 z"
       id="path5574"
       inkscape:connector-curvature="0" />
    <path
       style="color:#000000;font-style:normal;font-variant:normal;font-weight:normal;font-stretch:normal;font-size:medium;line-height:normal;font-family:sans-serif;font-variant-ligatures:normal;font-variant-position:normal;font-variant-caps:normal;font-variant-numeric:normal;font-variant-alternates:normal;font-feature-settings:normal;text-indent:0;text-align:start;text-decoration:none;text-decoration-line:none;text-decoration-style:solid;text-decoration-color:#000000;letter-spacing:normal;word-spacing:normal;text-transform:none;writing-mode:lr-tb;direction:ltr;text-orientation:mixed;dominant-baseline:auto;baseline-shift:baseline;text-anchor:start;white-space:normal;shape-padding:0;clip-rule:nonzero;display:inline;overflow:visible;visibility:visible;opacity:1;isolation:auto;mix-blend-mode:normal;color-interpolation:sRGB;color-interpolation-filters:linearRGB;solid-color:#000000;solid-opacity:1;vector-effect:none;fill:#262626;fill-opacity:1;fill-rule:evenodd;stroke:none;stroke-width:1.32738674;stroke-linecap:butt;stroke-linejoin:miter;stroke-miterlimit:4;stroke-dasharray:none;stroke-dashoffset:0;stroke-opacity:1;color-rendering:auto;image-rendering:auto;shape-rendering:auto;text-rendering:auto;enable-background:accumulate"
       d="m 79.353337,108.38307 c -2.86615,24.33057 -8.88882,50.07797 -16.52538,70.7588 -3.81827,10.34042 -8.04121,19.41522 -12.45797,26.40141 -4.41675,6.98619 -9.0405,11.86289 -13.52895,13.87583 l 0.54382,1.21111 c 4.90131,-2.1981 9.61729,-7.27679 14.10708,-14.3785 4.48979,-7.10171 8.74045,-16.24741 12.58143,-26.64931 7.68196,-20.80381 13.7192,-46.62757 16.59789,-71.06452 z"
       id="path5576"
       inkscape:connector-curvature="0" />
    <path
       style="color:#000000;font-style:normal;font-variant:normal;font-weight:normal;font-stretch:normal;font-size:medium;line-height:normal;font-family:sans-serif;font-variant-ligatures:normal;font-variant-position:normal;font-variant-caps:normal;font-variant-numeric:normal;font-variant-alternates:normal;font-feature-settings:normal;text-indent:0;text-align:start;text-decoration:none;text-decoration-line:none;text-decoration-style:solid;text-decoration-color:#000000;letter-spacing:normal;word-spacing:normal;text-transform:none;writing-mode:lr-tb;direction:ltr;text-orientation:mixed;dominant-baseline:auto;baseline-shift:baseline;text-anchor:start;white-space:normal;shape-padding:0;clip-rule:nonzero;display:inline;overflow:visible;visibility:visible;opacity:1;isolation:auto;mix-blend-mode:normal;color-interpolation:sRGB;color-interpolation-filters:linearRGB;solid-color:#000000;solid-opacity:1;vector-effect:none;fill:#262626;fill-opacity:1;fill-rule:evenodd;stroke:none;stroke-width:0.53095472;stroke-linecap:butt;stroke-linejoin:miter;stroke-miterlimit:4;stroke-dasharray:none;stroke-dashoffset:0;stroke-opacity:1;color-rendering:auto;image-rendering:auto;shape-rendering:auto;text-rendering:auto;enable-background:accumulate"
       d="m 127.69191,110.96893 -0.50463,0.16462 c 12.39489,37.84785 43.38672,79.85145 88.36594,109.11354 l 0.29004,-0.44485 c -44.87795,-29.19621 -75.80179,-71.1239 -88.15135,-108.83331 z"
       id="path5578"
       inkscape:connector-curvature="0" />
    <path
       style="display:inline;opacity:1;fill:#262626;fill-opacity:1;stroke:none;stroke-width:1.36720836;stroke-linecap:round;stroke-linejoin:round;stroke-miterlimit:4;stroke-dasharray:none;stroke-opacity:1;paint-order:stroke fill markers"
       d="m 105.88145,86.229553 -0.70336,0.0093 v 2.699105 l -0.95509,0.238774 v -1.856788 l -1.80364,-0.238513 v 11.830336 c 15.04352,0.949176 18.10956,1.273203 28.6477,1.273203 v -1.412939 l -1.62968,-0.167218 v -2.182931 l -0.39848,-0.04691 -0.23928,0.125744 v 2.038519 l -0.8094,-0.08296 v -1.454423 l -0.58359,0.169035 v 0.382402 l -1.55163,-0.13452 v -1.202946 l -0.26263,-0.112775 v 1.292904 l -0.30774,-0.02669 V 96.00999 l -0.53069,-0.04691 -0.53044,0.07493 v 0.976097 l -0.61339,0.04094 h -0.0622 v -1.36446 h -0.41273 v 1.396348 l -0.13325,0.0088 V 97.47246 H 122.738 v -3.257023 l -0.55688,-0.0656 -0.55714,0.01866 V 96.7035 h -0.42077 v -2.60733 l -0.58125,-0.09385 v 2.097895 h -0.43036 v -3.152542 l -0.70569,-0.06585 -0.70596,0.06585 v 0.718911 l -0.91543,-0.091 v -1.355128 l -0.525,-0.149845 v 2.703254 h -0.17189 v -1.9496 h -0.42438 v 1.9496 h -0.19601 v -0.265223 h -0.14881 V 92.74208 l -1.23354,-0.262625 v 2.029189 h -0.33158 v -2.901842 l -0.53044,-0.140514 -0.53044,0.103183 v 0.971948 l -0.48428,0.110442 v 2.177744 h -0.20275 v -4.88333 h -0.66005 v -2.208593 h -0.52526 v 2.208593 h -0.19677 v -0.867467 l -0.76921,-0.03733 -0.76921,0.102927 v 3.145543 l -0.30929,-0.03241 v -2.194074 h -0.52525 v 2.139114 l -0.52526,-0.05522 v -1.183501 h -0.45006 v 1.136317 l -0.52448,-0.05496 v -3.303686 h -1.24546 v -2.408741 z m -20.359053,1.654306 -0.87525,0.07156 v 4.058899 h -0.37151 v 1.380273 h -0.53044 v -3.276208 l -0.51981,-0.192107 -0.73213,0.178883 v 3.660687 h -0.32226 v -0.888727 h -0.44177 v -2.294407 h -0.27843 v 0.920354 l -1.04792,-0.07156 v 3.843459 h -0.37021 v -2.772994 h -0.31941 v -1.176502 h -0.4244 v -2.13522 l -0.61003,-0.192368 -1.03469,0.05963 v 3.54117 h -0.58358 v 1.86923 l -0.79565,-0.07908 v -1.843047 l -0.25199,0.0438 v -0.77336 h -0.29193 v 0.824171 l -0.6764,0.117445 v 1.909932 h -0.53044 v -3.488277 l -0.50398,0.01325 -0.50399,0.07959 v 2.852325 l -0.51722,-0.02102 v -1.636677 l -0.38473,-0.09385 v 1.714976 l -0.26185,-0.01064 v 1.226796 h -0.69299 v -2.705586 l -0.95483,0.09852 v -1.958155 l -0.55715,-0.05159 -0.55714,0.200405 v 4.77626 l -0.53898,0.03005 v -0.716322 l -0.63778,0.04666 v 0.705435 l -0.41455,0.02308 v -3.591981 l -0.53069,-0.01324 -0.90195,0.07985 v 4.716373 l -0.47858,0.03938 v -1.555529 l -0.45007,0.112519 v 1.479829 l -0.87499,0.07207 v -0.243179 l -1.00798,-0.112519 v 1.052835 l -0.95484,-0.02569 v -1.769419 l -0.37152,-0.103183 -0.37124,0.05626 v 2.511924 l -1.96282,0.150627 v -1.080574 l -0.31656,-0.01866 -0.69143,0.08451 v 2.589705 c 9.46743,-0.396383 21.38928,-0.860326 29.86802,-0.848802 v -8.063876 l -2.17515,0.123145 v -0.918799 h -0.37152 V 87.94339 Z"
       id="rect4538"
       inkscape:connector-curvature="0"
       sodipodi:nodetypes="cccccccccccccccccccccccccccccccccccccccccccccccccccccccccccccccccccccccccccccccccccccccccccccccccccccccccccccccccccccccccccccccccccccccccccccccccccccccccccccccccccccccccccccccccccccc" />
  </g>
</svg>
