<?xml version="1.0" encoding="UTF-8" standalone="no"?>
<svg
   xmlns:dc="http://purl.org/dc/elements/1.1/"
   xmlns:cc="http://creativecommons.org/ns#"
   xmlns:rdf="http://www.w3.org/1999/02/22-rdf-syntax-ns#"
   xmlns:svg="http://www.w3.org/2000/svg"
   xmlns="http://www.w3.org/2000/svg"
   width="380.77545mm"
   height="256.8508mm"
   viewBox="0 0 380.77545 256.8508"
   version="1.1"
   id="svg4995">
  <defs
     id="defs4989" />
  <metadata
     id="metadata4992">
    <rdf:RDF>
      <cc:Work
         rdf:about="">
        <dc:format>image/svg+xml</dc:format>
        <dc:type
           rdf:resource="http://purl.org/dc/dcmitype/StillImage" />
        <dc:title></dc:title>
      </cc:Work>
    </rdf:RDF>
  </metadata>
  <path
     id="path4528"
     d="m 184.39081,0 v 127.54983 l -1.16737,0.0661 v -0.91881 H 182.8524 V 124.164 l -0.8754,-0.0594 -0.87539,0.0713 v 4.05919 h -0.37156 v 1.38027 h -0.5302 v -3.27628 l -0.51986,-0.19224 -0.73226,0.1788 v 3.66076 h -0.32246 v -0.88884 h -0.44132 v -2.29443 h -0.27853 v 0.92036 l -1.048,-0.0713 v 3.84318 h -0.37 v -2.77295 h -0.31988 v -1.17616 h -0.42426 v -2.13527 l -0.60978,-0.19276 -1.03508,0.0599 v 3.54087 h -0.58343 v 1.86965 l -0.7953,-0.0791 v -1.8433 l -0.25218,0.0439 v -0.77359 h -0.29197 v 0.82424 l -0.67645,0.1173 v 1.90996 h -0.5302 v -3.48816 l -0.50436,0.0135 -0.50385,0.0796 v 2.85202 l -0.51728,-0.0207 v -1.6366 l -0.38447,-0.0941 v 1.71514 l -0.262,-0.0108 v 1.22679 h -0.69298 v -2.70579 l -0.95498,0.0987 v -1.95802 l -0.55707,-0.0517 -0.55708,0.20051 v 4.77594 l -0.53898,0.0305 v -0.71675 l -0.63769,0.047 v 0.70538 l -0.41444,0.0227 v -3.59151 l -0.53072,-0.0134 -0.90227,0.0796 v 4.7165 l -0.47852,0.0393 v -1.55546 l -0.45011,0.11265 v 1.48002 l -0.87488,0.0718 v -0.24288 l -1.00821,-0.11266 v 1.05265 l -0.95446,-0.0259 v -1.7694 l -0.37155,-0.10284 -0.37155,0.0563 v 2.51148 l -1.96268,0.15089 v -1.08055 l -0.31626,-0.0186 -0.69143,0.0842 v 2.1394 c -4.29677,0.35649 -7.8435,0.80497 -10.29239,1.35238 l -11.67112,12.30829 c 0,0.45014 2.37003,0.83652 6.41717,1.15962 C 103.75105,205.9894 43.616707,241.62143 0,255.9296 l 0.20670573,0.63096 C 44.042142,242.18066 104.41648,206.39404 140.73921,150.83317 c 4.67469,0.34707 11.3401,0.61641 19.09548,0.80822 -13.96556,46.86089 -38.75755,78.7548 -72.494801,104.41843 l 0.281119,0.37052 c 33.826552,-25.73157 58.708902,-57.76102 72.694782,-104.77655 2.95722,0.0715 6.0736,0.13134 9.28936,0.18035 1.81725,1.49077 3.34659,2.89257 4.63538,4.24367 -3.21868,20.77213 -8.5139,41.83255 -14.95826,59.28475 -3.81828,10.34042 -8.04088,19.4153 -12.45764,26.40149 -4.41675,6.98619 -9.04044,11.8627 -13.52889,13.87564 l 0.54363,1.2113 c 4.90132,-2.1981 9.61736,-7.27674 14.10715,-14.37845 4.48979,-7.10172 8.74017,-16.24764 12.58115,-26.64954 6.37323,-17.25961 11.61282,-37.97429 14.85749,-58.48583 7.04807,8.15862 5.60976,14.89476 7.41402,29.52067 l 0.80511,1.41025 0.57413,-1.19837 c 0.47196,-0.57691 0.67207,-1.69756 0.84904,-2.86443 0.57995,2.1138 1.36597,3.691 1.48518,7.00267 1.307,0.0291 0.76558,0.78971 1.35496,1.71049 l 1.19166,-6.59132 0.53072,0.42426 0.95498,-2.86443 c 0.43,-0.39087 0.72394,-0.30723 0.95446,0 l 1.06143,-5.72988 c 0.28143,0.90869 0.64841,1.00129 1.12965,1.01079 l 0.2496,2.80913 c 0.91831,0.78668 0.35232,3.72 0.95498,6.57841 0.42009,-1.1397 0.76441,-3.03763 1.27331,-3.2892 l 0.10593,2.97088 c 1.20657,0.80939 -0.01,1.7786 0.95498,5.09271 l 0.5302,-1.37925 0.31833,1.90997 0.66146,0.52399 0.2067,-2.85202 0.5116,-1.91616 c 0.57144,-0.30711 0.0129,-1.65402 0.95446,-2.22829 -0.0381,-0.63932 0.16552,-1.03725 0.42478,-1.37924 1.11955,-8.23295 1.0804,-14.05859 2.67581,-19.34042 1.78962,18.31028 4.63712,37.1097 8.32197,52.74665 2.42267,10.28078 5.20498,19.19364 8.29149,25.70799 3.08649,6.51435 6.47082,10.6642 10.19627,11.31817 l 0.0687,-0.39171 c -3.47966,-0.61083 -6.83835,-4.62602 -9.9043,-11.09699 -3.06594,-6.47098 -5.84526,-15.36389 -8.2641,-25.62841 -3.74071,-15.874 -6.61772,-35.02762 -8.4,-53.61275 1.57238,-4.54973 4.51799,-8.77425 10.68979,-13.89786 1.49816,-0.0246 2.96765,-0.0519 4.40955,-0.0816 9.10295,38.32953 40.86694,81.06894 77.02267,104.99463 l 0.6372,-0.96325 c -35.81027,-23.69706 -67.38431,-66.1949 -76.47804,-104.05618 1.71586,-0.0375 3.38358,-0.0786 4.99712,-0.12351 13.25763,36.7182 43.59637,76.70758 86.90684,104.88404 l 0.2899,-0.44494 c -43.14809,-28.07082 -73.39395,-67.90977 -86.63761,-104.45409 5.55042,-0.15862 10.38597,-0.36266 14.19552,-0.61081 3.44531,6.62305 12.12751,15.61982 23.63112,25.65528 12.23534,10.67382 27.66026,22.49231 43.3436,33.71215 15.68336,11.21985 31.62424,21.8406 44.89132,30.116 13.26708,8.27539 23.83581,14.19931 28.86956,16.05276 l 0.18397,-0.49764 c -4.91448,-1.80953 -15.51636,-7.73723 -28.77241,-16.00574 -13.25602,-8.26852 -29.19008,-18.88383 -44.86394,-30.09687 -15.67384,-11.21305 -31.0882,-23.02451 -43.30329,-33.68064 -11.36139,-9.91138 -19.95187,-18.84722 -23.39702,-25.29251 5.11883,-0.34938 8.21449,-0.78288 8.21449,-1.30483 L 236.8057,137.41383 c -2.28885,-0.44043 -5.48283,-0.82647 -9.28419,-1.15755 v -1.26349 l -1.62936,-0.16743 v -2.18281 l -0.39894,-0.047 -0.23926,0.12558 v 2.03863 l -0.80926,-0.0827 v -1.45469 l -0.58342,0.16898 v 0.3824 l -1.55184,-0.13435 v -1.20303 l -0.26252,-0.11266 v 1.29295 l -0.30799,-0.0269 v -1.35909 l -0.5302,-0.047 -0.53072,0.0749 v 0.97617 l -0.6134,0.0408 h -0.062 v -1.36425 h -0.4129 v 1.39629 l -0.13332,0.009 v 0.37672 h -0.26407 v -3.25717 l -0.55655,-0.0656 -0.55707,0.0186 v 2.53525 h -0.42117 v -2.60759 l -0.58084,-0.0935 v 2.09755 h -0.43047 v -3.15226 l -0.7059,-0.0661 -0.70589,0.0661 v 0.71882 l -0.91519,-0.091 v -1.35495 l -0.52504,-0.14986 v 2.70319 h -0.17208 v -1.94975 h -0.42426 v 1.94975 h -0.19586 v -0.26562 h -0.14882 v -1.7663 l -1.23352,-0.26251 v 2.02881 h -0.33176 v -2.90163 l -0.53072,-0.14056 -0.5302,0.10336 v 0.97203 l -0.48421,0.11007 v 2.17816 h -0.20257 v -4.88342 h -0.66043 v -2.20865 h -0.52503 v 2.20865 h -0.19689 v -0.86765 l -0.76894,-0.0372 -0.76946,0.10284 v 3.14554 l -0.30954,-0.0326 v -2.19367 h -0.52504 v 2.13889 l -0.52503,-0.0553 v -1.18339 h -0.4501 v 1.13636 l -0.52452,-0.0553 v -3.30367 h -1.2454 v -2.40864 l -0.70383,-0.10336 -0.70332,0.009 v 2.69957 l -0.95498,0.23875 v -1.85725 l -1.11414,-0.14728 V 0 Z"
     style="display:inline;opacity:1;fill:#262626;fill-opacity:1;fill-rule:evenodd;stroke:none;stroke-width:0.13273868px;stroke-linecap:butt;stroke-linejoin:miter;stroke-opacity:1" />
</svg>
